<?xml version="1.0" standalone="no"?>
<!DOCTYPE svg PUBLIC "-//W3C//DTD SVG 20010904//EN"
 "http://www.w3.org/TR/2001/REC-SVG-20010904/DTD/svg10.dtd">
<svg version="1.0" xmlns="http://www.w3.org/2000/svg"
 width="640.000000pt" height="640.000000pt" viewBox="0 0 640.000000 640.000000"
 preserveAspectRatio="xMidYMid meet">

<g transform="translate(0.000000,640.000000) scale(0.100000,-0.100000)"
fill="#000000" stroke="none">
<path d="M3105 5166 c-124 -68 -174 -100 -169 -108 3 -4 -3 -5 -12 -1 -13 5
-15 3 -9 -7 5 -9 4 -11 -3 -6 -7 4 -64 -23 -130 -62 -298 -175 -583 -340 -661
-381 -19 -11 -21 -15 -10 -23 11 -8 10 -9 -3 -4 -24 7 -49 -3 -41 -18 3 -6 3
-8 -2 -4 -8 8 -83 -31 -225 -117 -47 -29 -133 -78 -192 -111 -59 -32 -107 -62
-108 -66 0 -5 62 -8 138 -8 l137 0 70 39 c53 29 69 43 67 57 -2 14 -1 16 6 5
8 -11 30 -2 112 44 77 43 99 60 89 67 -11 7 -9 8 4 4 22 -7 79 23 70 37 -3 6
-1 7 5 3 11 -6 106 46 432 236 47 28 159 93 250 145 91 52 191 111 223 130
l57 34 60 -36 c34 -21 65 -33 72 -29 7 4 10 4 6 -1 -10 -11 113 -87 130 -80 8
3 10 0 6 -7 -5 -8 -2 -9 10 -5 9 4 15 3 11 -2 -3 -5 36 -33 87 -62 90 -50 111
-62 245 -143 35 -20 68 -34 75 -30 7 4 8 3 4 -5 -4 -6 0 -14 11 -18 10 -4 42
-22 71 -40 29 -19 58 -31 65 -27 6 4 9 4 5 -1 -5 -5 30 -30 77 -57 89 -50 101
-55 89 -36 -4 7 -3 8 5 4 6 -4 9 -11 6 -16 -8 -12 262 -163 276 -154 8 4 9 3
5 -4 -4 -7 9 -19 33 -32 35 -17 59 -20 178 -20 117 0 135 2 123 14 -8 7 -78
49 -155 94 -77 44 -207 119 -290 167 -352 205 -426 246 -437 239 -6 -4 -8 -3
-4 4 3 6 -41 37 -111 77 -65 36 -147 84 -183 106 -36 21 -90 53 -120 69 -30
17 -89 51 -130 76 -127 75 -188 104 -222 104 -18 0 -60 -15 -93 -34z m986
-603 c13 -16 12 -17 -3 -4 -17 13 -22 21 -14 21 2 0 10 -8 17 -17z"/>
<path d="M3114 4769 c-126 -66 -203 -113 -198 -121 3 -4 -1 -6 -8 -3 -17 5
-594 -330 -591 -344 2 -6 -4 -8 -14 -4 -11 4 -14 3 -9 -5 5 -8 1 -10 -10 -5
-11 4 -15 2 -11 -4 4 -6 -1 -10 -10 -9 -10 0 -26 -15 -40 -39 l-23 -40 0 -522
c0 -511 4 -584 32 -567 7 4 8 3 4 -5 -10 -16 13 -43 31 -37 8 3 12 2 8 -3 -5
-9 196 -131 215 -131 5 0 10 -3 12 -8 7 -15 290 -172 300 -165 6 3 8 1 5 -4
-4 -6 0 -14 9 -17 24 -9 31 -7 14 5 -13 9 -13 10 0 6 8 -2 15 -9 15 -16 0 -7
18 -23 40 -35 22 -12 61 -34 87 -50 26 -15 52 -25 58 -21 6 4 9 1 8 -5 -2 -6
26 -27 62 -46 86 -46 127 -43 230 16 41 24 129 74 195 112 66 38 127 73 135
78 38 23 179 105 320 185 172 97 193 113 185 132 -2 8 -1 12 4 9 26 -17 31 73
31 570 0 501 -4 575 -31 558 -5 -3 -6 1 -3 9 3 10 -16 28 -60 56 -36 22 -68
41 -71 41 -2 0 -29 16 -59 35 -30 19 -57 35 -59 35 -3 0 -54 29 -113 65 -60
36 -115 63 -122 60 -7 -3 -10 -1 -7 5 3 5 -8 16 -25 25 -16 8 -30 12 -30 8 0
-4 -6 0 -12 9 -25 31 -371 218 -404 218 -18 0 -58 -14 -90 -31z m218 -196 c73
-42 152 -87 175 -100 24 -14 48 -21 54 -17 8 4 9 3 5 -4 -8 -14 30 -36 46 -26
7 4 8 3 4 -4 -8 -14 50 -46 66 -36 6 4 8 3 4 -4 -4 -6 25 -28 71 -54 43 -23
92 -51 108 -60 17 -10 41 -24 55 -30 14 -7 27 -15 30 -19 3 -3 25 -17 50 -31
l45 -25 3 -488 2 -489 -27 -23 c-16 -12 -31 -22 -35 -23 -4 0 -52 -26 -105
-58 -54 -32 -187 -109 -295 -171 -109 -62 -195 -117 -192 -122 3 -5 -3 -6 -12
-2 -13 5 -15 3 -9 -7 5 -9 4 -11 -4 -6 -7 5 -29 -3 -52 -18 -22 -15 -50 -31
-62 -36 -12 -6 -29 -15 -38 -21 -12 -10 -69 19 -300 151 -156 90 -304 174
-328 188 -25 14 -86 49 -135 78 -50 30 -94 54 -98 54 -4 0 -8 225 -8 500 0
333 3 500 10 500 20 0 405 231 402 241 -1 6 2 8 8 4 13 -8 161 75 154 87 -3 4
1 6 8 3 7 -3 69 29 138 70 69 41 126 74 127 75 1 0 61 -34 135 -77z m-537
-1671 c-3 -3 -11 0 -18 7 -9 10 -8 11 6 5 10 -3 15 -9 12 -12z m300 -310 c-3
-3 -11 0 -18 7 -9 10 -8 11 6 5 10 -3 15 -9 12 -12z"/>
<path d="M3030 4122 l0 -68 70 -2 70 -3 0 70 0 71 -70 0 -70 0 0 -68z"/>
<path d="M3232 4123 l3 -68 65 0 65 0 3 68 3 67 -71 0 -71 0 3 -67z"/>
<path d="M3030 3930 l0 -70 70 0 70 0 0 70 0 70 -70 0 -70 0 0 -70z"/>
<path d="M3237 3993 c-4 -3 -7 -35 -7 -70 l0 -63 70 0 70 0 0 70 0 70 -63 0
c-35 0 -67 -3 -70 -7z"/>
</g>
</svg>
